<?xml version="1.0" encoding="iso-8859-1"?>
<!-- Generator: Adobe Illustrator 19.0.0, SVG Export Plug-In . SVG Version: 6.00 Build 0)  -->
<svg version="1.1" id="Layer_1" xmlns="http://www.w3.org/2000/svg" xmlns:xlink="http://www.w3.org/1999/xlink" x="0px" y="0px"
	 viewBox="0 0 473.935 473.935" style="enable-background:new 0 0 473.935 473.935;" xml:space="preserve">
<circle style="fill:#FFC50B;" cx="236.967" cy="236.967" r="236.967"/>
<path style="fill:#EB4424;" d="M396.884,62.095L283.388,241.203l-13.141-9.384l26.193,18.709L421.651,88.542
	C414.066,79.116,405.801,70.26,396.884,62.095z"/>
<path style="fill:#EF4F31;" d="M283.388,241.203L396.884,62.095c-8.528-7.805-17.628-15.001-27.229-21.504l-99.408,191.228
	L283.388,241.203z"/>
<path style="fill:#EB4424;" d="M208.975,231.819l-13.134,9.384L80.437,59.087c-9.126,8.041-17.657,16.752-25.463,26.095
	l127.804,165.346L208.975,231.819z"/>
<path style="fill:#EF4F31;" d="M195.841,241.203l13.134-9.384L108.239,38.02c-9.792,6.342-19.083,13.384-27.801,21.066
	L195.841,241.203z"/>
<circle style="fill:#EA8500;" cx="239.07" cy="304.769" r="99.157"/>
<circle style="fill:#FFC50B;" cx="239.07" cy="304.769" r="72.965"/>
<path style="fill:#FFF800;" d="M285.098,290.759c-0.269-0.834-0.988-1.441-1.856-1.564l-29.541-4.296l-13.227-26.784
	c-0.76-1.553-3.341-1.553-4.108,0L223.138,284.9l-29.541,4.296c-0.868,0.123-1.579,0.73-1.856,1.564
	c-0.262,0.831-0.052,1.74,0.576,2.346l21.392,20.845l-5.051,29.437c-0.153,0.857,0.206,1.725,0.906,2.241
	c0.707,0.513,1.65,0.58,2.417,0.176l26.432-13.901l26.432,13.901c0.329,0.176,0.703,0.262,1.074,0.262
	c0.468,0,0.95-0.146,1.343-0.438c0.703-0.516,1.059-1.381,0.906-2.241l-5.051-29.437l21.392-20.845
	C285.139,292.499,285.367,291.59,285.098,290.759z"/>
<g>
</g>
<g>
</g>
<g>
</g>
<g>
</g>
<g>
</g>
<g>
</g>
<g>
</g>
<g>
</g>
<g>
</g>
<g>
</g>
<g>
</g>
<g>
</g>
<g>
</g>
<g>
</g>
<g>
</g>
</svg>
